<?xml version="1.0" standalone="no"?>
<!DOCTYPE svg PUBLIC "-//W3C//DTD SVG 20010904//EN"
 "http://www.w3.org/TR/2001/REC-SVG-20010904/DTD/svg10.dtd">
<svg version="1.0" xmlns="http://www.w3.org/2000/svg"
 width="800.000000pt" height="800.000000pt" viewBox="0 0 800.000000 800.000000"
 preserveAspectRatio="xMidYMid meet">
<metadata>
Created by potrace 1.16, written by Peter Selinger 2001-2019
</metadata>
<g transform="translate(0.000000,800.000000) scale(0.100000,-0.100000)"
fill="#000000" stroke="none">
<path d="M3130 6838 c-373 -166 -694 -407 -973 -731 -100 -116 -263 -337 -311
-423 -9 -16 -35 -58 -56 -94 -52 -86 -193 -370 -219 -442 -20 -56 -15 -82 12
-60 53 42 306 49 486 13 99 -19 303 -86 335 -109 21 -15 71 -34 60 -22 -18 18
-190 89 -282 116 -94 27 -236 54 -285 54 -20 0 -37 9 -52 26 -19 22 -21 32
-14 62 4 21 4 39 -1 42 -15 9 31 91 56 101 14 5 24 17 24 28 0 11 6 21 13 24
9 3 9 7 -1 20 -8 9 -11 25 -7 36 3 11 8 29 10 40 2 12 11 30 19 42 8 12 12 29
9 38 -3 10 -2 12 4 5 9 -13 73 -24 73 -13 0 4 -5 9 -12 11 -7 3 -13 21 -13 41
-2 47 36 89 63 69 32 -23 43 -24 62 -7 18 16 20 16 26 1 8 -22 21 -20 27 4 3
11 10 20 17 20 6 0 8 -4 5 -10 -7 -12 43 6 62 22 11 9 12 6 4 -14 -5 -14 -7
-29 -4 -32 4 -3 -1 -6 -11 -6 -9 0 -14 5 -11 10 7 12 -5 13 -22 2 -8 -5 -4
-14 12 -28 17 -15 27 -18 34 -11 8 8 11 7 11 -1 0 -7 6 -12 14 -12 8 0 16 -5
18 -11 2 -5 15 -12 30 -13 20 -2 25 1 21 12 -5 12 -2 12 16 3 12 -7 19 -16 16
-22 -4 -5 -1 -9 4 -9 6 0 11 7 11 16 0 9 6 14 13 11 9 -3 14 5 15 25 2 29 1
30 -27 25 -21 -4 -33 -1 -43 11 -12 15 -11 16 4 4 9 -7 19 -9 22 -4 3 5 18 7
33 4 l28 -5 -34 32 c-33 29 -59 42 -46 22 3 -5 1 -12 -5 -16 -5 -3 -10 -1 -10
6 0 8 -7 5 -20 -6 -11 -10 -17 -22 -14 -26 3 -5 -2 -6 -11 -3 -9 4 -15 3 -13
-2 2 -5 -1 -9 -7 -9 -5 0 -10 6 -11 13 -1 6 2 12 7 12 6 0 9 6 8 13 -3 26 2
37 17 37 10 0 14 5 10 16 -4 10 -2 13 6 8 7 -5 9 0 6 14 -7 26 7 38 26 23 18
-15 51 10 43 34 -5 10 -13 15 -23 11 -8 -3 -12 -2 -9 4 3 6 1 10 -4 10 -6 0
-11 -4 -11 -10 0 -5 -13 -10 -29 -10 -16 0 -31 -6 -35 -15 -6 -17 -32 -20 -41
-5 -3 6 1 7 10 4 11 -5 14 -2 9 11 -5 13 -3 16 7 13 8 -3 24 3 37 13 13 10 29
16 35 13 8 -3 13 4 13 16 0 11 -6 20 -13 20 -7 0 -13 5 -13 11 0 5 5 7 10 4 6
-3 10 4 10 18 0 20 -4 23 -22 20 -16 -3 -27 3 -37 18 -12 21 -11 25 15 47 16
13 23 21 16 17 -9 -4 -29 10 -57 41 l-44 47 80 85 c206 217 494 425 774 558
50 24 86 43 80 43 -5 0 -21 -5 -35 -11z"/>
<path d="M5095 6624 c6 -6 39 -32 75 -59 137 -102 150 -115 110 -115 -11 0
-29 -9 -40 -20 -11 -11 -33 -20 -48 -20 -19 0 -39 -11 -62 -35 -19 -19 -39
-35 -45 -35 -6 0 -22 -11 -34 -24 -13 -14 -37 -30 -54 -37 -18 -7 -49 -26 -70
-42 -20 -16 -44 -27 -51 -24 -7 3 -19 0 -26 -6 -10 -9 -11 -9 -6 1 5 8 -1 12
-17 12 -14 0 -27 -6 -30 -14 -3 -7 -14 -16 -25 -18 -16 -5 -31 19 -102 169
-46 96 -87 176 -92 179 -5 4 2 -16 15 -42 172 -339 337 -818 417 -1209 48
-234 75 -535 61 -680 -5 -44 -4 -84 1 -89 5 -6 8 -5 8 3 0 26 76 137 133 192
93 93 264 163 452 188 54 6 61 9 28 10 -57 1 -173 -22 -261 -53 -97 -34 -178
-84 -252 -157 -58 -56 -80 -73 -64 -47 4 7 9 33 10 58 1 33 -3 48 -16 57 -13
9 -19 33 -24 90 -7 75 -48 370 -62 443 l-7 35 22 -27 c25 -31 47 -37 37 -12
-5 14 -4 15 9 4 8 -7 15 -23 15 -36 0 -27 21 -32 40 -9 16 20 76 30 104 17 14
-6 29 -6 39 -1 11 7 23 3 41 -16 14 -14 36 -25 49 -25 13 0 27 -3 31 -7 4 -5
13 -8 19 -8 7 0 11 -9 10 -20 -2 -11 0 -31 3 -44 4 -20 10 -22 36 -19 25 4 37
-1 55 -20 13 -14 23 -33 23 -42 0 -10 7 -24 16 -31 15 -12 19 -10 33 11 42 65
78 77 101 35 8 -15 22 -25 35 -25 11 0 25 -4 31 -9 5 -6 23 -12 39 -14 21 -2
31 -10 33 -25 2 -15 8 -19 20 -15 23 9 31 23 26 46 -3 18 0 17 24 -6 27 -26
60 -38 47 -17 -3 6 1 10 9 10 14 0 34 -24 34 -44 1 -5 11 -14 24 -20 14 -7 23
-22 25 -39 2 -31 -17 -35 -70 -14 -22 8 -66 10 -137 7 l-105 -5 135 -13 c167
-15 308 -47 425 -97 146 -61 158 -64 179 -53 24 13 18 54 -25 163 -17 44 -37
96 -45 117 -22 61 -134 289 -172 353 -20 33 -61 101 -91 150 -237 385 -563
741 -921 1006 -77 57 -143 101 -125 83z"/>
<path d="M3487 6408 c-187 -256 -363 -578 -462 -840 -10 -27 -22 -48 -27 -48
-5 0 -6 -6 -2 -12 5 -9 2 -8 -9 1 -10 8 -20 11 -24 7 -3 -3 0 -6 7 -6 7 0 10
-3 7 -7 -4 -3 -2 -12 4 -20 9 -10 8 -13 -5 -13 -9 0 -16 -4 -16 -10 0 -5 5
-10 11 -10 7 0 9 -9 5 -22 -51 -174 -92 -399 -102 -550 l-7 -104 -46 -11 c-42
-10 -48 -9 -76 13 -91 74 -194 148 -229 165 -43 20 -37 15 50 -41 87 -57 196
-154 249 -223 84 -108 83 -109 78 61 -9 248 26 471 116 732 116 341 309 704
527 993 20 26 34 47 31 47 -3 0 -39 -46 -80 -102z"/>
<path d="M4562 6413 c64 -140 105 -248 100 -265 -6 -26 -60 -34 -78 -11 -13
17 -15 17 -25 1 -13 -23 -26 -23 -34 1 -3 10 -13 22 -23 25 -9 3 -28 10 -41
16 -18 8 -22 7 -18 -3 4 -10 -7 -18 -31 -26 -32 -10 -39 -9 -52 8 -9 10 -33
24 -53 32 -20 7 -37 16 -37 21 0 10 -33 -3 -42 -16 -5 -8 -13 -8 -25 0 -14 9
-20 7 -28 -9 -7 -14 -23 -21 -55 -24 -25 -2 -53 -5 -62 -6 -10 -1 -18 -7 -18
-15 0 -7 -5 -10 -10 -7 -6 3 -13 0 -16 -8 -5 -14 -49 -33 -66 -29 -5 1 -8 -5
-8 -14 0 -8 -5 -12 -10 -9 -6 4 -17 2 -24 -4 -10 -9 -61 -9 -61 -1 0 1 -8 3
-18 5 -9 2 -15 -1 -11 -6 3 -5 -6 -9 -20 -9 -13 0 -27 -6 -29 -12 -4 -10 -8
-10 -15 1 -8 11 -10 11 -14 0 -4 -12 -8 -11 -23 1 -15 12 -17 12 -10 1 6 -11
3 -13 -12 -9 -14 4 -23 -2 -32 -23 -7 -16 -17 -27 -22 -24 -4 3 -11 -5 -14
-18 -4 -15 -19 -29 -40 -37 -19 -7 -37 -20 -40 -29 -5 -13 -7 -14 -15 -1 -5 8
-29 20 -52 25 -34 9 -49 8 -73 -4 -28 -15 -29 -16 -7 -19 12 -2 22 -7 22 -11
0 -4 7 -8 15 -8 8 0 15 7 15 16 0 11 3 12 8 5 4 -7 18 -14 32 -16 16 -2 24 -9
21 -18 -2 -8 -4 -22 -5 -29 -4 -21 -26 -26 -27 -7 -1 9 -3 21 -4 26 -1 6 -3
12 -4 15 -2 9 -61 -25 -61 -35 0 -6 -14 -10 -31 -10 -16 0 -28 -4 -25 -8 3 -5
20 -9 38 -8 23 1 36 7 44 24 l12 24 18 -31 c10 -17 22 -31 26 -31 5 0 2 -13
-7 -30 -15 -29 -48 -54 -58 -44 -3 3 -15 0 -28 -6 -18 -10 -24 -10 -34 3 -6 9
-20 14 -31 13 -10 -2 -24 1 -31 6 -12 10 -43 -42 -43 -74 0 -25 -14 -23 -33 5
-13 18 -16 19 -16 5 -1 -21 -29 -24 -37 -4 -13 35 205 440 353 655 35 51 60
90 54 87 -16 -10 -134 -185 -213 -316 -79 -131 -209 -392 -262 -526 -68 -174
-131 -411 -156 -589 -22 -157 -5 -455 26 -455 7 0 32 39 55 87 150 307 545
562 871 563 48 0 90 -5 93 -10 18 -30 -168 -1460 -276 -2120 -75 -460 -149
-786 -250 -1104 -57 -180 -59 -219 -16 -346 31 -87 51 -88 93 -2 57 115 162
450 227 722 96 397 138 655 296 1780 35 254 83 642 106 860 21 201 19 196 56
209 126 44 323 -41 495 -213 107 -108 264 -334 264 -382 0 -6 7 -17 15 -24 13
-11 15 2 15 106 0 464 -127 1006 -368 1569 -48 114 -111 245 -116 245 -3 0 9
-30 26 -67z m238 -895 c11 -13 19 -33 20 -44 0 -25 20 -36 41 -23 8 5 19 9 25
9 29 0 114 -461 114 -616 0 -56 -2 -65 -16 -60 -9 3 -33 6 -54 6 -35 0 -42 5
-71 47 -50 72 -188 205 -270 260 -133 89 -242 122 -336 103 -28 -6 -57 -18
-65 -27 -7 -9 -19 -81 -29 -174 -15 -150 -18 -159 -44 -183 -31 -28 -40 -33
-29 -13 4 6 -2 3 -14 -7 -12 -11 -25 -16 -29 -13 -3 4 -1 7 5 7 7 0 12 9 12
20 0 11 5 20 11 20 6 0 9 9 6 20 -3 10 0 21 7 24 6 2 3 5 -6 5 -19 1 -26 31
-8 31 6 0 10 -4 10 -10 0 -5 7 -10 15 -10 8 0 15 5 15 11 0 5 5 7 10 4 6 -3
10 -2 10 2 0 16 -24 33 -47 33 -13 0 -23 5 -23 10 0 6 -9 10 -20 10 -11 0 -20
-5 -20 -12 0 -9 -3 -9 -12 0 -9 9 -9 38 1 123 8 69 9 115 4 120 -20 20 -146
22 -233 4 -47 -9 -92 -17 -100 -18 -8 -1 -17 -5 -20 -8 -3 -3 -19 -11 -37 -17
-31 -10 -32 -10 -23 14 7 18 6 26 -3 28 -49 13 -72 24 -70 34 2 7 -8 12 -22
12 -16 0 -25 -6 -25 -15 0 -8 -4 -15 -9 -15 -5 0 -13 -17 -18 -37 -5 -21 -15
-37 -21 -36 -6 2 -9 -4 -6 -12 5 -11 2 -14 -12 -8 -11 3 -22 11 -26 17 -5 8
-8 7 -8 -1 0 -7 -7 -10 -15 -7 -8 3 -28 2 -44 -4 -22 -8 -32 -7 -43 4 -8 8
-24 16 -36 17 -12 1 -22 1 -22 2 0 0 4 14 9 32 7 24 6 33 -5 37 -16 6 -19 42
-4 51 6 4 16 2 23 -3 8 -7 18 -6 29 2 16 12 15 15 -12 40 -17 14 -30 22 -30
18 0 -5 -7 -9 -15 -9 -21 0 -16 56 8 82 17 19 19 19 28 2 8 -14 14 -16 25 -7
10 9 17 8 29 -3 20 -21 19 -27 -7 -28 -18 -1 -19 -2 -5 -6 10 -3 14 -10 11
-16 -5 -9 -4 -9 5 -1 13 12 61 7 61 -7 0 -14 17 -10 35 7 14 14 22 15 56 5 36
-11 56 -41 27 -41 -10 0 -9 -3 1 -9 7 -5 10 -14 6 -21 -5 -8 3 -10 29 -6 32 5
38 3 46 -19 9 -25 50 -36 50 -14 0 5 3 8 8 6 4 -3 13 1 20 9 9 10 9 14 1 14
-8 0 -8 4 1 15 10 12 9 20 -4 40 -9 13 -16 35 -16 47 0 19 2 20 10 8 6 -10 10
-11 10 -2 0 6 7 12 15 12 9 0 18 12 21 30 4 16 9 28 13 27 3 0 16 4 29 11 12
7 33 12 45 10 15 -2 23 3 25 16 4 21 27 48 34 41 2 -2 25 2 50 10 41 12 47 12
52 -2 4 -9 -2 -23 -15 -34 -11 -10 -18 -23 -14 -28 3 -6 1 -11 -6 -11 -8 0 -7
-5 2 -17 12 -15 12 -16 -4 -10 -11 4 -16 3 -12 -3 8 -13 45 -13 45 -1 0 6 12
6 30 1 24 -7 30 -5 35 10 3 10 3 29 0 42 -5 18 -2 25 8 25 10 0 17 -16 21 -50
8 -54 4 -63 -16 -51 -28 18 -36 12 -33 -25 2 -20 -3 -46 -11 -58 -21 -33 -18
-46 8 -32 18 9 20 9 15 -4 -3 -10 3 -21 16 -30 19 -12 24 -12 39 3 14 13 15
19 6 28 -9 9 -8 12 5 12 10 0 17 -8 17 -20 0 -11 5 -20 11 -20 5 0 7 5 4 10
-3 6 4 14 17 19 23 9 22 9 -7 16 -57 13 -57 13 -45 36 7 12 10 30 7 40 -3 10
-3 19 0 19 11 0 33 -30 33 -47 0 -10 4 -23 8 -30 8 -13 82 -20 100 -9 7 4 12
1 12 -8 0 -19 21 -21 38 -4 13 13 54 19 46 6 -3 -4 1 -9 8 -9 7 -1 25 -3 41
-5 18 -2 27 2 27 12 0 8 9 14 20 14 11 0 20 6 20 14 0 8 15 27 33 42 17 15 31
30 30 34 -1 4 9 5 22 2 14 -2 25 -10 25 -18 0 -23 34 -35 57 -19 11 8 23 12
27 8 13 -13 68 -3 84 15 9 10 25 21 35 25 21 8 22 35 3 63 -8 11 -12 31 -9 48
5 25 9 27 35 22 16 -3 38 -16 48 -28z m-1720 -285 c0 5 7 1 16 -8 9 -8 13 -23
10 -31 -5 -12 -2 -15 11 -10 10 4 14 4 11 0 -4 -3 -1 -19 8 -35 9 -18 12 -39
8 -55 -5 -19 -4 -25 5 -20 6 4 11 3 11 -2 0 -6 -7 -13 -16 -16 -12 -5 -15 -14
-10 -38 3 -17 3 -29 0 -25 -4 3 -21 -5 -39 -18 -17 -14 -36 -25 -42 -25 -12 0
-63 -56 -63 -70 0 -5 -7 -10 -15 -10 -11 0 -15 11 -15 40 0 78 48 350 68 384
3 5 15 -9 28 -30 13 -22 24 -35 24 -31z m1034 -595 c-6 -106 -47 -454 -89
-743 -13 -93 -31 -219 -39 -280 -33 -233 -67 -446 -96 -605 -17 -91 -35 -194
-41 -230 -5 -36 -12 -73 -15 -82 -3 -9 -7 -26 -9 -38 -2 -12 -8 -27 -13 -34
-6 -6 -10 -31 -9 -56 0 -24 -5 -46 -12 -48 -6 -2 -9 -7 -6 -12 9 -14 -67 11
-83 27 -8 8 -25 13 -37 11 -21 -4 -21 -4 -9 56 53 255 112 640 269 1766 34
246 33 243 55 237 10 -3 21 1 23 8 3 7 18 15 34 18 24 5 32 14 43 47 12 35 16
39 25 26 7 -8 11 -39 9 -68z"/>
<path d="M3356 4072 c-16 -27 -48 -144 -64 -237 -9 -51 -8 -279 2 -325 15 -76
41 -145 63 -168 7 -7 13 -18 13 -23 0 -5 8 -9 18 -9 10 0 30 21 50 55 18 30
51 69 74 87 22 18 52 43 65 56 13 12 33 22 43 22 11 0 20 5 20 11 0 6 14 22
30 36 17 13 30 31 30 39 0 39 -76 211 -132 299 -64 101 -189 193 -212 157z
m78 -47 c74 -50 171 -188 212 -300 4 -11 15 -40 24 -65 16 -44 16 -45 -8 -67
-14 -13 -29 -23 -33 -23 -5 0 -9 -7 -9 -15 0 -8 -4 -14 -9 -13 -22 6 -170
-127 -197 -177 -10 -19 -21 -35 -25 -35 -16 0 -69 131 -77 195 -10 71 -8 277
2 293 3 5 18 7 33 4 28 -5 28 -5 10 16 -13 14 -14 20 -5 19 42 -1 67 5 72 19
4 12 1 14 -14 9 -15 -5 -20 -2 -20 13 0 11 -9 31 -20 45 -24 30 -25 55 -4 85
19 28 23 28 68 -3z"/>
<path d="M4602 4055 c-52 -29 -107 -85 -156 -160 -55 -84 -126 -239 -126 -274
0 -24 29 -61 47 -61 7 0 12 -3 12 -7 -4 -23 3 -34 17 -31 29 5 156 -113 191
-177 12 -22 28 -40 34 -40 24 0 69 80 89 160 38 146 27 378 -25 553 -17 56
-34 64 -83 37z m71 -57 c44 -142 59 -365 33 -489 -24 -111 -80 -221 -94 -181
-18 54 -152 191 -204 208 -10 4 -18 13 -18 20 0 8 -6 14 -13 14 -7 0 -21 10
-31 22 -19 21 -19 24 -2 73 57 162 159 310 250 366 49 30 61 25 79 -33z"/>
</g>
</svg>
